<svg width="60" height="60" viewBox="0 0 60 60" fill="none" xmlns="http://www.w3.org/2000/svg">
<path d="M42.5433 54.911C40.8496 53.3565 40.726 50.7076 42.2713 49.0039L45.7328 45.1736L53.4099 36.6798C53.4965 36.5928 53.5954 36.4933 53.6819 36.4062C53.7685 36.3067 53.855 36.2073 53.9415 36.0953C55.1778 34.5781 55.7217 32.7127 55.6105 30.8847C56.1544 31.1956 56.6737 31.5686 57.1558 32.0163C57.2423 32.0909 57.3289 32.178 57.4154 32.2651C60.6173 35.4362 60.8769 40.5474 58.0212 44.0295L57.4278 44.6762L48.4155 54.6374C46.8702 56.3411 44.2369 56.4654 42.5433 54.911V54.911Z" fill="#D84426"/>
<path d="M35.3469 35.9456C34.7411 35.6223 34.1601 35.2243 33.6285 34.7393C33.5543 34.6772 33.4801 34.6025 33.4183 34.5404C30.0434 31.2946 29.7961 25.9222 32.8991 22.378L32.9856 22.2785L37.0035 17.7518L44.6312 9.15854L44.6559 9.13367C46.3248 7.2434 46.671 4.63185 45.7561 2.45555C46.7328 2.82863 47.66 3.38825 48.4883 4.13441C48.5995 4.23389 48.7108 4.33338 48.8097 4.44531C52.1599 7.76571 52.3577 13.1878 49.1929 16.7569L45.0391 21.4453L36.8922 30.623L36.818 30.7101C35.52 32.2024 35.0378 34.1424 35.3345 35.9581L35.3469 35.9456Z" fill="#D84426"/>
<path d="M34.6167 56.9132C33.7142 56.1048 32.9725 55.1846 32.3791 54.1897C29.8571 49.9864 30.1167 44.5145 33.2815 40.535L34.1964 39.5153L44.7911 27.6638L51.8006 19.8167C51.8624 19.7421 51.9119 19.6799 51.9737 19.6177C52.0232 19.5555 52.0726 19.5058 52.1344 19.4436V19.4187C54.2731 16.9067 54.9284 13.6236 54.1619 10.6389C55.0767 11.0493 55.9544 11.609 56.7333 12.3178C57.0671 12.6163 57.3761 12.9396 57.6481 13.2629C60.7388 16.9191 60.7511 22.4034 57.4874 26.0844L57.438 26.1466L47.585 37.1649L40.6496 44.9249C40.5384 45.0368 40.4395 45.1488 40.3406 45.2607C40.2417 45.3726 40.1428 45.4845 40.0439 45.6089C36.8667 49.5262 37.287 55.2841 41.0576 58.704C41.6263 59.2138 42.232 59.6491 42.8749 59.9973C39.945 60.0719 36.9656 59.0646 34.6167 56.9381V56.9132Z" fill="#D84426"/>
<path d="M32.9715 16.2845C30.0292 12.4293 30.1405 6.88288 33.4907 3.15209C34.7517 1.74683 36.3094 0.776821 37.9783 0.242074C38.1761 0.179894 38.3739 0.117714 38.5717 0.0679704C39.6596 -0.143441 40.8341 0.142586 41.7242 0.938488L41.7489 0.96336C43.2447 2.33132 43.3684 4.65684 42.0209 6.17403L41.9838 6.21134L32.9344 16.2845H32.9715Z" fill="#D84426"/>
<path d="M17.4582 54.9102C19.1519 53.3557 19.2755 50.7068 17.7302 49.0031L14.2687 45.1728L6.59154 36.679C6.50501 36.592 6.40611 36.4925 6.31957 36.4055C6.23303 36.306 6.14649 36.2065 6.05995 36.0946C4.8237 34.5774 4.27975 32.712 4.39101 30.8839C3.84706 31.1948 3.32783 31.5679 2.84569 32.0156C2.75916 32.0902 2.67262 32.1772 2.58608 32.2643C-0.615817 35.4354 -0.87543 40.5466 1.98032 44.0287L2.57372 44.6754L11.586 54.6366C13.1313 56.3403 15.7645 56.4647 17.4582 54.9102Z" fill="#332771"/>
<path d="M24.6534 35.9458C25.2592 35.6224 25.8402 35.2245 26.3718 34.7395C26.446 34.6773 26.5201 34.6027 26.582 34.5405C29.9569 31.2947 30.2042 25.9224 27.1012 22.3781L27.0147 22.2786L22.9968 17.7519L15.3691 9.15868L15.3444 9.1338C13.6755 7.24354 13.3293 4.63198 14.2441 2.45569C13.2675 2.82877 12.3403 3.38839 11.512 4.13454C11.4008 4.23403 11.2895 4.33352 11.1906 4.44544C7.84035 7.76585 7.64255 13.1879 10.8074 16.7571L14.9612 21.4454L23.1081 30.6232L23.1823 30.7102C24.4803 32.2025 24.9625 34.1425 24.6658 35.9582L24.6534 35.9458Z" fill="#332771"/>
<path d="M25.3838 56.9125C26.2862 56.1041 27.028 55.1839 27.6214 54.189C30.1433 49.9856 29.8837 44.5138 26.7189 40.5343L25.8041 39.5145L15.2094 27.6631L8.19983 19.816C8.13802 19.7413 8.08857 19.6792 8.02676 19.617C7.97731 19.5548 7.92786 19.5051 7.86604 19.4429V19.418C5.72733 16.9059 5.07211 13.6228 5.83859 10.6382C4.92376 11.0486 4.04602 11.6082 3.26718 12.3171C2.93339 12.6155 2.62433 12.9389 2.35235 13.2622C-0.738284 16.9184 -0.750647 22.4026 2.51306 26.0837L2.56251 26.1459L12.4155 37.1641L19.3508 44.9242C19.4621 45.0361 19.561 45.148 19.6599 45.26C19.7588 45.3719 19.8577 45.4838 19.9566 45.6082C23.1338 49.5255 22.7135 55.2833 18.9429 58.7032C18.3742 59.2131 17.7684 59.6484 17.1256 59.9966C20.0555 60.0712 23.0349 59.0639 25.3838 56.9373V56.9125Z" fill="#332771"/>
<path d="M27.0259 16.2838C29.9682 12.4286 29.8569 6.88218 26.5066 3.15139C25.2457 1.74612 23.688 0.776119 22.019 0.241372C21.8212 0.179192 21.6234 0.117012 21.4256 0.0672685C20.3377 -0.144143 19.1633 0.141884 18.2732 0.937786L18.2485 0.962658C16.7526 2.33061 16.629 4.65614 17.9765 6.17333L18.0136 6.21064L27.063 16.2838H27.0259Z" fill="#332771"/>
</svg>
